<svg width="520" height="640" viewBox="0 0 520 640" fill="none" xmlns="http://www.w3.org/2000/svg">
  <rect width="520" height="640" rx="80" fill="#0F1412"/>
  <rect x="32" y="32" width="456" height="576" rx="64" fill="#0F766E" opacity="0.18"/>
  <circle cx="260" cy="230" r="110" fill="#0F766E" opacity="0.35"/>
  <path d="M130 520C170 450 220 420 260 420C300 420 350 450 390 520" stroke="#5EEAD4" stroke-width="10" stroke-linecap="round"/>
  <path d="M180 300C210 320 235 330 260 330C285 330 310 320 340 300" stroke="#F4F4F0" stroke-width="8" stroke-linecap="round" opacity="0.7"/>
  <circle cx="210" cy="220" r="16" fill="#F4F4F0"/>
  <circle cx="310" cy="220" r="16" fill="#F4F4F0"/>
  <path d="M190 160C210 140 235 130 260 130C285 130 310 140 330 160" stroke="#F4F4F0" stroke-width="8" stroke-linecap="round" opacity="0.7"/>
  <rect x="90" y="70" width="340" height="500" rx="56" stroke="#F4F4F0" stroke-width="2" opacity="0.2"/>
</svg>
